:version 1.10
:name ASF
:units
  mass 1
  length 1
  angle deg
:documentation
  ASF file generated by Kaydara
:root
  axis xyz
  order  tx ty tz rx ry rz
  position 0 0 0
  orientation 0 0 0
:bonedata
  begin
    id 1
    name RightUpLegDummy
    direction -0.65628 -0.754516 0.00165102
    length 4.76918
    axis 0 0 0 xyz
  end
  begin
    id 2
    name RightUpLeg
    direction -0.145584 -0.923362 0.355256
    length 17.9961
    axis -24.7611 -13.1006 1.78531 xyz
    dof rx ry rz
  end
  begin
    id 3
    name RightLeg
    direction 0.263379 0.172355 -0.949171
    length 13.3386
    axis 89.6202 -21.1929 12.3855 xyz
    dof rx ry rz
  end
  begin
    id 4
    name RightFoot
    direction 0.224283 -0.968777 -0.105675
    length 5.86697
    axis 56.995 -39.6905 17.3365 xyz
    dof rx ry rz
  end
  begin
    id 5
    name RightToes
    direction -0.0806345 -0.9037 0.420506
    length 4.75197
    axis 146.825 -39.7828 17.6019 xyz
    dof rx ry rz
  end
  begin
    id 6
    name SpineDummy
    direction -3.39852e-014 1 9.33296e-014
    length 8.13779
    axis 0 0 0 xyz
  end
  begin
    id 7
    name Spine
    direction -0.156609 0.733703 0.661176
    length 7.14978
    axis 41.2365 5.68757 17.0844 xyz
    dof rx ry rz
  end
  begin
    id 8
    name Spine1
    direction 0 0 0
    length 0
    axis 42.8809 47.8308 -3.36039 xyz
    dof rx ry rz
  end
  begin
    id 9
    name HEadDummy
    direction 0.546431 0.701947 0.456819
    length 3.55512
    axis 42.8809 47.8308 -3.36039 xyz
  end
  begin
    id 10
    name HEad
    direction 0.23444 0.828559 0.508457
    length 7.35827
    axis 51.1864 49.2662 27.4903 xyz
    dof rx ry rz
  end
  begin
    id 11
    name LeftShoulder1Dummy
    direction 0.431183 0.475873 -0.766568
    length 2.49352
    axis 42.8809 47.8308 -3.36039 xyz
  end
  begin
    id 12
    name LeftShoulder1
    direction 0.268187 -0.383402 -0.883786
    length 4.48604
    axis -119.517 0.106469 35.1736 xyz
    dof rx ry rz
  end
  begin
    id 13
    name LeftArm
    direction 0.380567 -0.703221 -0.600541
    length 10.1142
    axis -5.41825 36.2925 7.8293 xyz
    dof rx ry rz
  end
  begin
    id 14
    name LeftForeArm
    direction 0.541071 -0.732356 -0.413396
    length 9.39839
    axis 4.65387 33.7604 7.81644 xyz
    dof rx ry rz
  end
  begin
    id 15
    name LeftHand
    direction 0.847511 -0.389379 -0.360707
    length 3.66142
    axis 7.65593 21.1436 -24.6758 xyz
    dof rx ry rz
  end
  begin
    id 16
    name RightShoulderDummy
    direction -0.692546 0.541855 0.476208
    length 2.49352
    axis 42.8809 47.8308 -3.36039 xyz
  end
  begin
    id 17
    name RightShoulder
    direction -0.870808 -0.316653 0.376065
    length 4.48602
    axis 141.571 51.133 -100.254 xyz
    dof rx ry rz
  end
  begin
    id 18
    name RightArm
    direction 0.366897 -0.87275 0.322015
    length 10.1142
    axis 92.3258 71.2036 138.917 xyz
    dof rx ry rz
  end
  begin
    id 19
    name RightForeArm
    direction 0.702487 -0.694568 0.155197
    length 9.39835
    axis 153.863 41.5092 -176.604 xyz
    dof rx ry rz
  end
  begin
    id 20
    name RightHand
    direction 0.79502 -0.601276 0.0800636
    length 3.66142
    axis 154.247 4.59222 142.9 xyz
    dof rx ry rz
  end
  begin
    id 21
    name LeftUpLegDummy
    direction 0.65628 -0.754516 0.00165102
    length 4.76919
    axis 0 0 0 xyz
  end
  begin
    id 22
    name LeftUpLeg
    direction -0.1277 -0.689368 0.713067
    length 17.9961
    axis -48.3385 -17.8675 0.791927 xyz
    dof rx ry rz
  end
  begin
    id 23
    name LeftLeg
    direction 0.109849 -0.991246 -0.0732378
    length 13.3386
    axis -2.05791 -7.30784 1.72042 xyz
    dof rx ry rz
  end
  begin
    id 24
    name LeftFoot
    direction 0.0448355 -0.272614 0.961078
    length 5.86697
    axis -18.7733 -7.89606 10.2113 xyz
    dof rx ry rz
  end
  begin
    id 25
    name LeftToes
    direction -0.18506 0.293668 0.937823
    length 4.75197
    axis 71.2267 -7.89606 10.2113 xyz
    dof rx ry rz
  end
:hierarchy
  begin
    root RightUpLegDummy SpineDummy LeftUpLegDummy
    RightUpLegDummy RightUpLeg
    RightUpLeg RightLeg
    RightLeg RightFoot
    RightFoot RightToes
    SpineDummy Spine
    Spine Spine1
    Spine1 HEadDummy LeftShoulder1Dummy RightShoulderDummy
    HEadDummy HEad
    LeftShoulder1Dummy LeftShoulder1
    LeftShoulder1 LeftArm
    LeftArm LeftForeArm
    LeftForeArm LeftHand
    RightShoulderDummy RightShoulder
    RightShoulder RightArm
    RightArm RightForeArm
    RightForeArm RightHand
    LeftUpLegDummy LeftUpLeg
    LeftUpLeg LeftLeg
    LeftLeg LeftFoot
    LeftFoot LeftToes
  end

:SAMPLES-PER-SECOND 30
:FULLY-SPECIFIED
:DEGREES
665
root  10.0559 38.7186 24.8426 -4.27689 -21.242 -2.95551
RightUpLeg  15.7868 9.95154 12.5168
RightLeg  -87.7008 -13.0945 3.44617
RightFoot  16.0326 7.99951 -20.4725
RightToes  -1.27222e-014 -6.36111e-015 6.36111e-015
Spine  -38.1917 -13.7517 -6.32349
Spine1  8.71547 -13.989 54.6253
HEad  58.1765 -74.391 -41.3063
LeftShoulder1  6.36111e-015 -1.33558e-015 6.49777e-015
LeftArm  31.0244 -60.8557 -81.7529
LeftForeArm  -76.2957 -38.8994 15.4241
LeftHand  -6.29094 -22.8677 -20.4154
RightShoulder  -4.77083e-015 -6.36111e-015 -3.18055e-015
RightArm  47.1962 20.4812 51.3895
RightForeArm  -3.73004 -2.30642 5.02217
RightHand  0.871154 -1.59121 -4.09931
LeftUpLeg  23.9077 17.7503 16.7849
LeftLeg  0.180644 -10.9782 -1.57462
LeftFoot  7.11181 4.94127 -13.5406
LeftToes  1.27222e-014 -5.20697e-012 1.80337e-011
666
root  9.83285 38.8344 25.9017 -4.06705 -21.7197 -2.81464
RightUpLeg  17.9276 10.064 12.0703
RightLeg  -89.0367 -12.8341 3.31418
RightFoot  15.161 7.81654 -20.0852
RightToes  -1.27222e-014 -6.36111e-015 6.36111e-015
Spine  -38.3099 -13.954 -7.10545
Spine1  8.94443 -13.7976 52.8003
HEad  58.288 -74.118 -41.228
LeftShoulder1  6.36111e-015 -1.33558e-015 6.49777e-015
LeftArm  29.4912 -61.0061 -80.485
LeftForeArm  -76.0512 -38.7138 14.7652
LeftHand  -6.38703 -24.3367 -21.864
RightShoulder  -4.77083e-015 -6.36111e-015 -3.18055e-015
RightArm  47.6956 21.0328 52.6547
RightForeArm  -4.19889 -2.72429 4.26836
RightHand  0.763617 -1.35206 -3.69634
LeftUpLeg  23.2846 17.9822 17.2634
LeftLeg  -11.1361 -13.1291 -0.694909
LeftFoot  8.41029 4.9823 -13.2021
LeftToes  1.27222e-014 -5.20697e-012 1.80337e-011
667
root  9.62794 38.8335 27.0325 -4.14328 -22.7372 -2.6396
RightUpLeg  20.183 10.4144 11.6397
RightLeg  -89.5319 -12.6269 2.69271
RightFoot  14.0187 7.91838 -20.1599
RightToes  -1.27222e-014 -6.36111e-015 6.36111e-015
Spine  -38.567 -14.2929 -8.06968
Spine1  9.95632 -13.5917 50.7544
HEad  58.4993 -73.4733 -41.219
LeftShoulder1  6.36111e-015 -1.33558e-015 6.49777e-015
LeftArm  29.33 -61.6047 -80.4129
LeftForeArm  -75.736 -38.4365 13.7866
LeftHand  -6.43491 -25.3537 -22.8439
RightShoulder  -4.77083e-015 -6.36111e-015 -3.18055e-015
RightArm  47.9701 21.4118 53.6031
RightForeArm  -4.47592 -2.95249 3.64914
RightHand  0.648912 -0.99928 -3.39417
LeftUpLeg  23.8894 18.119 17.7007
LeftLeg  -21.1017 -12.7634 0.106517
LeftFoot  10.1882 5.21012 -13.1989
LeftToes  1.27222e-014 -5.20697e-012 1.80337e-011
668
root  9.45637 38.6359 28.2071 -4.80743 -23.9913 -2.00893
RightUpLeg  21.7378 11.1945 10.7142
RightLeg  -87.2878 -12.8415 2.19898
RightFoot  12.0019 7.91675 -19.9701
RightToes  -1.27222e-014 -6.36111e-015 6.36111e-015
Spine  -38.2502 -15.2982 -9.77161
Spine1  10.9933 -13.5171 48.7593
HEad  59.6384 -72.5525 -42.0237
LeftShoulder1  6.36111e-015 -1.33558e-015 6.49777e-015
LeftArm  30.0665 -62.5005 -81.2512
LeftForeArm  -75.2664 -38.005 12.3363
LeftHand  -6.45834 -25.7804 -23.2018
RightShoulder  -4.77083e-015 -6.36111e-015 -3.18055e-015
RightArm  49.7411 21.9386 55.7822
RightForeArm  -5.78693 -4.4258 2.35405
RightHand  0.570278 -0.675351 -3.3003
LeftUpLeg  24.4501 17.9915 17.5717
LeftLeg  -24.3433 -9.8571 -1.29186
LeftFoot  12.9664 5.00471 -11.8667
LeftToes  1.27222e-014 -5.20697e-012 1.80337e-011
669
root  9.3301 38.2961 29.4344 -6.12915 -24.7969 -0.991241
RightUpLeg  21.8838 11.9873 8.95055
RightLeg  -81.07 -13.5109 1.61977
RightFoot  9.96921 6.94919 -17.9198
RightToes  -1.27222e-014 -6.36111e-015 6.36111e-015
Spine  -36.6732 -16.7784 -12.0241
Spine1  10.9461 -13.5753 47.9617
HEad  61.3219 -71.8043 -43.2988
LeftShoulder1  6.36111e-015 -1.33558e-015 6.49777e-015
LeftArm  30.8965 -63.4378 -82.2546
LeftForeArm  -74.7581 -37.6167 11.1884
LeftHand  -6.48253 -25.9633 -23.2641
RightShoulder  -4.77083e-015 -6.36111e-015 -3.18055e-015
RightArm  52.1449 22.5222 58.4661
RightForeArm  -7.45905 -6.4143 0.937727
RightHand  0.569815 -0.634433 -3.35781
LeftUpLeg  24.5537 20.7558 18.1913
LeftLeg  -20.0931 -9.03103 -1.08742
LeftFoot  14.6839 4.12564 -9.42481
LeftToes  1.27222e-014 -5.20697e-012 1.80337e-011
670
root  9.25487 37.9262 30.6923 -7.85291 -25.3044 0.210816
RightUpLeg  20.3647 12.8178 6.59178
RightLeg  -71.348 -14.0851 0.259791
RightFoot  10.9445 5.25869 -14.9083
RightToes  -1.27222e-014 -6.36111e-015 6.36111e-015
Spine  -34.335 -17.9986 -14.0985
Spine1  10.4563 -13.5745 47.7598
HEad  62.2787 -71.4337 -43.9334
LeftShoulder1  6.36111e-015 -1.33558e-015 6.49777e-015
LeftArm  31.7891 -64.4303 -83.1958
LeftForeArm  -74.585 -37.5307 10.9949
LeftHand  -6.50912 -26.2441 -23.4207
RightShoulder  -4.77083e-015 -6.36111e-015 -3.18055e-015
RightArm  52.6582 23.0184 59.2506
RightForeArm  -7.9423 -7.00355 0.601895
RightHand  0.657768 -0.936556 -3.54984
LeftUpLeg  24.7581 22.1131 17.2383
LeftLeg  -13.3619 -7.51958 -1.09062
LeftFoot  13.1909 3.04269 -7.2175
LeftToes  1.27222e-014 -5.20697e-012 1.80337e-011
671
root  9.24241 37.6371 31.8982 -9.46039 -26.3535 1.28583
RightUpLeg  17.4747 13.9974 4.40001
RightLeg  -60.841 -14.0158 -1.36689
RightFoot  17.2858 3.89823 -13.8563
RightToes  -1.27222e-014 -6.36111e-015 6.36111e-015
Spine  -32.6417 -18.1041 -15.0329
Spine1  10.7985 -13.2364 46.367
HEad  62.2597 -70.9527 -43.7548
LeftShoulder1  6.36111e-015 -1.33558e-015 6.49777e-015
LeftArm  32.9816 -65.3654 -84.2441
LeftForeArm  -74.8651 -37.6701 11.3106
LeftHand  -6.52246 -26.7144 -23.8549
RightShoulder  -4.77083e-015 -6.36111e-015 -3.18055e-015
RightArm  50.4352 23.2248 57.2822
RightForeArm  -6.87036 -5.71966 1.62391
RightHand  0.718118 -1.19331 -3.60538
LeftUpLeg  25.3654 22.7131 15.896
LeftLeg  -7.68348 -5.15151 -1.08491
LeftFoot  8.60601 2.19679 -5.82833
LeftToes  1.27222e-014 -5.20697e-012 1.80337e-011
672
root  9.25345 37.4494 33.0122 -10.6539 -28.0296 2.17629
RightUpLeg  13.8584 15.157 2.59337
RightLeg  -52.4051 -14.1417 -1.85268
RightFoot  25.6468 3.26214 -14.5438
RightToes  -1.27222e-014 -6.36111e-015 6.36111e-015
Spine  -31.8812 -17.5026 -15.2037
Spine1  11.6484 -12.7045 43.6823
HEad  62.2572 -69.9392 -43.7062
LeftShoulder1  6.36111e-015 -1.33558e-015 6.49777e-015
LeftArm  34.0164 -65.8121 -85.1961
LeftForeArm  -75.1203 -37.7203 11.2981
LeftHand  -6.51096 -27.2707 -24.4961
RightShoulder  -4.77083e-015 -6.36111e-015 -3.18055e-015
RightArm  47.4711 22.9319 54.587
RightForeArm  -5.4399 -4.09202 3.1134
RightHand  0.619466 -1.03838 -3.12624
LeftUpLeg  26.4564 23.7038 15.3482
LeftLeg  -4.0076 -2.71184 -0.785847
LeftFoot  4.04892 1.74744 -5.21619
LeftToes  1.27222e-014 -5.20697e-012 1.80337e-011
673
root  9.21956 37.3856 34.1149 -11.351 -29.3166 2.69462
RightUpLeg  10.5332 15.1119 0.989102
RightLeg  -47.2549 -16.093 -0.433238
RightFoot  29.7966 2.99373 -14.9283
RightToes  -1.27222e-014 -6.36111e-015 6.36111e-015
Spine  -31.6458 -16.9383 -15.1768
Spine1  11.756 -12.2955 41.7774
HEad  62.5985 -68.8774 -44.0153
LeftShoulder1  6.36111e-015 -1.33558e-015 6.49777e-015
LeftArm  34.2762 -65.6187 -85.6364
LeftForeArm  -74.9128 -37.574 10.8902
LeftHand  -6.48757 -27.7534 -25.0979
RightShoulder  -4.77083e-015 -6.36111e-015 -3.18055e-015
RightArm  46.196 22.5188 53.6298
RightForeArm  -5.05902 -3.771 3.99524
RightHand  0.428655 -0.66483 -2.27462
LeftUpLeg  28.207 24.8795 15.3831
LeftLeg  -2.24854 -1.12716 -0.491964
LeftFoot  1.4941 1.49738 -4.79372
LeftToes  1.27222e-014 -5.20697e-012 1.80337e-011
674
root  9.12614 37.471 35.2189 -11.5988 -29.5901 2.81456
RightUpLeg  8.03448 13.7066 -0.311814
RightLeg  -45.1804 -19.0137 1.66122
RightFoot  28.652 3.14673 -14.9275
RightToes  -1.27222e-014 -6.36111e-015 6.36111e-015
Spine  -31.7673 -16.868 -15.1781
Spine1  11.1354 -12.2572 41.603
HEad  62.536 -68.5089 -43.9055
LeftShoulder1  6.36111e-015 -1.33558e-015 6.49777e-015
LeftArm  34.1431 -65.2165 -85.7991
LeftForeArm  -74.5126 -37.413 10.601
LeftHand  -6.47637 -28.0381 -25.4251
RightShoulder  -4.77083e-015 -6.36111e-015 -3.18055e-015
RightArm  46.1996 22.237 54.0289
RightForeArm  -5.47658 -4.36082 4.2504
RightHand  0.325963 -0.50965 -1.73325
LeftUpLeg  30.4431 25.8272 15.5
LeftLeg  -1.98698 -0.764842 -0.427692
LeftFoot  -0.11087 1.26969 -4.25006
LeftToes  1.27222e-014 -5.20697e-012 1.80337e-011
675
root  9.00694 37.6423 36.2465 -11.5304 -29.3094 2.80682
RightUpLeg  6.06485 11.9982 -1.102
RightLeg  -45.3645 -20.3998 2.76872
RightFoot  26.345 3.40754 -14.8703
RightToes  -1.27222e-014 -6.36111e-015 6.36111e-015
Spine  -32.2359 -17.3127 -15.2951
Spine1  10.6833 -12.5863 41.9276
HEad  61.598 -68.7305 -43.0099
LeftShoulder1  6.36111e-015 -1.33558e-015 6.49777e-015
LeftArm  34.5645 -65.0461 -86.3744
LeftForeArm  -74.4076 -37.3694 10.5218
LeftHand  -6.4823 -28.1161 -25.4643
RightShoulder  -4.77083e-015 -6.36111e-015 -3.18055e-015
RightArm  45.9261 21.9177 54.2328
RightForeArm  -5.70157 -4.65986 4.29842
RightHand  0.346043 -0.595194 -1.76252
LeftUpLeg  32.6495 26.5505 15.6728
LeftLeg  -2.45822 -1.21267 -0.516535
LeftFoot  -1.91416 1.12658 -3.97195
LeftToes  1.27222e-014 -5.20697e-012 1.80337e-011
676
root  8.87679 37.8497 37.2105 -11.2128 -29.0777 2.69367
RightUpLeg  4.27762 10.5186 -1.24691
RightLeg  -47.3174 -20.0366 2.89107
RightFoot  26.1117 3.40574 -14.8262
RightToes  -1.27222e-014 -6.36111e-015 6.36111e-015
Spine  -33.0502 -17.8428 -15.2497
Spine1  10.4295 -13.0307 41.9631
HEad  59.8695 -68.8428 -41.5709
LeftShoulder1  6.36111e-015 -1.33558e-015 6.49777e-015
LeftArm  35.7306 -65.071 -87.574
LeftForeArm  -74.5196 -37.3067 10.1872
LeftHand  -6.48056 -28.1466 -25.5015
RightShoulder  -4.77083e-015 -6.36111e-015 -3.18055e-015
RightArm  45.5891 21.6075 54.4471
RightForeArm  -5.87135 -4.82222 4.03442
RightHand  0.376714 -0.640559 -1.92584
LeftUpLeg  34.8519 27.1821 16.2332
LeftLeg  -3.38933 -2.06722 -0.668176
LeftFoot  -3.22386 1.11848 -4.10768
LeftToes  1.27222e-014 -5.20697e-012 1.80337e-011
